solid tests/objects/cube.stl
facet normal 0 -1 0
outer loop
vertex -5.0 -5.0 -5.0
vertex 5.0 -5.0 -5.0
vertex 5.0 -5.0 5.0
endloop
endfacet
facet normal 0 -1 0
outer loop
vertex -5.0 -5.0 -5.0
vertex 5.0 -5.0 5.0
vertex -5.0 -5.0 5.0
endloop
endfacet
facet normal 0 0 -1
outer loop
vertex -5.0 5.0 -5.0
vertex 5.0 5.0 -5.0
vertex 5.0 -5.0 -5.0
endloop
endfacet
facet normal 0 0 -1
outer loop
vertex -5.0 5.0 -5.0
vertex 5.0 -5.0 -5.0
vertex -5.0 -5.0 -5.0
endloop
endfacet
facet normal 1 0 0
outer loop
vertex 5.0 5.0 -5.0
vertex 5.0 5.0 5.0
vertex 5.0 -5.0 5.0
endloop
endfacet
facet normal 1 0 0
outer loop
vertex 5.0 5.0 -5.0
vertex 5.0 -5.0 5.0
vertex 5.0 -5.0 -5.0
endloop
endfacet
facet normal 0 0 1
outer loop
vertex 5.0 5.0 5.0
vertex -5.0 5.0 5.0
vertex -5.0 -5.0 5.0
endloop
endfacet
facet normal 0 0 1
outer loop
vertex 5.0 5.0 5.0
vertex -5.0 -5.0 5.0
vertex 5.0 -5.0 5.0
endloop
endfacet
facet normal -1 0 0
outer loop
vertex -5.0 5.0 5.0
vertex -5.0 5.0 -5.0
vertex -5.0 -5.0 -5.0
endloop
endfacet
facet normal -1 0 0
outer loop
vertex -5.0 5.0 5.0
vertex -5.0 -5.0 -5.0
vertex -5.0 -5.0 5.0
endloop
endfacet
facet normal 0 1 0
outer loop
vertex -5.0 5.0 -5.0
vertex -5.0 5.0 5.0
vertex 5.0 5.0 5.0
endloop
endfacet
facet normal 0 1 0
outer loop
vertex -5.0 5.0 -5.0
vertex 5.0 5.0 5.0
vertex 5.0 5.0 -5.0
endloop
endfacet
endsolid tests/objects/cube.stl